<svg width="220" height="201" viewBox="0 0 220 201" fill="none" xmlns="http://www.w3.org/2000/svg">
<g clip-path="url(#clip0_54_4064)">
<path d="M26.5292 141.97C23.7688 135.279 24.5261 126.985 29.0941 121.302C38.841 109.183 60.4477 106.608 75.1534 106.463C78.8055 106.426 82.4819 106.9 86.1217 106.596C86.2316 106.293 84.7415 105.892 84.485 105.855C83.0437 105.6 81.6025 105.394 80.1979 105.163C73.3946 104.022 65.7975 103.961 59.1041 102.431C58.6522 102.334 57.7484 102.309 57.8339 101.654C61.3637 97.2213 64.8936 92.7403 67.9349 87.9679C75.2634 76.4558 76.155 62.8186 82.885 50.6994C98.861 21.9556 129.909 9.50843 161.409 16.1874C162.13 16.3331 163.193 17.2439 163.596 16.3817C159.418 14.208 154.325 12.9451 149.488 12.5808C148.426 12.0221 152.004 6.71542 152.627 6.01109C164.365 -7.38324 186.509 3.49738 183.187 20.6926C182.992 21.7127 181.733 24.2871 182.271 25.0036C208.128 40.5716 220.403 71.1248 213.881 100.196C212.22 107.604 207.969 116.238 206.931 123.342C206.04 129.462 206.345 139.189 206.895 145.419C207.151 148.394 207.859 156.045 209.325 158.23C212.66 163.209 216.067 166.233 218.364 172.305C223.09 184.801 217.276 195.839 205.233 201C210.62 190.496 200.678 180.186 193.178 173.726C183.04 164.982 170.289 158.024 158.136 152.365C132.474 140.416 103.881 132.814 75.5321 130.713C63.1104 129.79 34.9325 129.815 29.9858 143.865L29.2896 147.156C28.5201 145.419 27.2376 143.695 26.5292 141.958V141.97Z" fill="#579FE7"/>
<path d="M26.5292 141.97C23.7688 135.279 24.5261 126.985 29.0941 121.302C38.841 109.183 60.4477 106.608 75.1534 106.463C78.8055 106.426 82.4819 106.9 86.1217 106.596C86.2316 106.293 84.7415 105.892 84.485 105.855C83.0437 105.6 81.6025 105.394 80.1979 105.163C73.3946 104.022 65.7975 103.961 59.1041 102.431C58.6522 102.334 57.7484 102.309 57.8339 101.654C61.3637 97.2213 64.8936 92.7403 67.9349 87.9679C75.2634 76.4558 76.155 62.8186 82.885 50.6994C98.861 21.9556 129.909 9.50843 161.409 16.1874C162.13 16.3331 163.193 17.2439 163.596 16.3817C159.418 14.208 154.325 12.9451 149.488 12.5808C148.426 12.0221 152.004 6.71542 152.627 6.01109C164.365 -7.38324 186.509 3.49738 183.187 20.6926C182.992 21.7127 181.733 24.2871 182.271 25.0036C208.128 40.5716 220.403 71.1248 213.881 100.196C212.22 107.604 207.969 116.238 206.931 123.342C206.04 129.462 206.345 139.189 206.895 145.419C207.151 148.394 207.859 156.045 209.325 158.23C212.66 163.209 216.067 166.233 218.364 172.305C223.09 184.801 217.276 195.839 205.233 201C210.62 190.496 200.678 180.186 193.178 173.726C183.04 164.982 170.289 158.024 158.136 152.365C132.474 140.416 103.881 132.814 75.5321 130.713C63.1104 129.79 34.9325 129.815 29.9858 143.865L29.2896 147.156C28.5201 145.419 27.2376 143.695 26.5292 141.958V141.97Z" fill="url(#paint0_linear_54_4064)" fill-opacity="0.15"/>
<path d="M119.063 154.684C125.805 156.445 142.269 162.043 145.836 167.957C147.766 171.163 143.882 177.114 141.83 179.652C125.28 200.235 92.3383 187.703 93.5842 161.461C93.6697 159.554 94.4025 154.769 95.9659 153.689C100.9 150.276 113.481 153.227 119.063 154.684Z" fill="#579FE7"/>
<path d="M119.063 154.684C125.805 156.445 142.269 162.043 145.836 167.957C147.766 171.163 143.882 177.114 141.83 179.652C125.28 200.235 92.3383 187.703 93.5842 161.461C93.6697 159.554 94.4025 154.769 95.9659 153.689C100.9 150.276 113.481 153.227 119.063 154.684Z" fill="url(#paint1_linear_54_4064)" fill-opacity="0.15"/>
<path d="M90.03 174.576H4.38485C3.17566 174.576 2.07639 174.09 1.28248 173.301C0.488563 172.511 0 171.43 0 170.216C0 167.812 1.96647 165.857 4.38485 165.857H88.2956C88.4055 169.002 89.0162 171.916 90.03 174.576Z" fill="#579FE7"/>
<path d="M90.03 174.576H4.38485C3.17566 174.576 2.07639 174.09 1.28248 173.301C0.488563 172.511 0 171.43 0 170.216C0 167.812 1.96647 165.857 4.38485 165.857H88.2956C88.4055 169.002 89.0162 171.916 90.03 174.576Z" fill="url(#paint2_linear_54_4064)" fill-opacity="0.15"/>
<path d="M56.5026 182.105H42.7618C40.3401 182.105 38.377 184.056 38.377 186.464C38.377 188.872 40.3401 190.824 42.7618 190.824H56.5026C58.9243 190.824 60.8875 188.872 60.8875 186.464C60.8875 184.056 58.9243 182.105 56.5026 182.105Z" fill="#579FE7"/>
<path d="M56.5026 182.105H42.7618C40.3401 182.105 38.377 184.056 38.377 186.464C38.377 188.872 40.3401 190.824 42.7618 190.824H56.5026C58.9243 190.824 60.8875 188.872 60.8875 186.464C60.8875 184.056 58.9243 182.105 56.5026 182.105Z" fill="url(#paint3_linear_54_4064)" fill-opacity="0.15"/>
<path d="M108.156 190.824H75.2267C74.0175 190.824 72.9182 190.338 72.1243 189.549C71.3304 188.759 70.8418 187.666 70.8418 186.464C70.8418 184.06 72.8083 182.105 75.2267 182.105H94.476C98.0548 186.343 102.879 189.354 108.156 190.824Z" fill="#579FE7"/>
<path d="M108.156 190.824H75.2267C74.0175 190.824 72.9182 190.338 72.1243 189.549C71.3304 188.759 70.8418 187.666 70.8418 186.464C70.8418 184.06 72.8083 182.105 75.2267 182.105H94.476C98.0548 186.343 102.879 189.354 108.156 190.824Z" fill="url(#paint4_linear_54_4064)" fill-opacity="0.15"/>
</g>
<defs>
<linearGradient id="paint0_linear_54_4064" x1="122.464" y1="0.0175781" x2="122.464" y2="201" gradientUnits="userSpaceOnUse">
<stop stop-color="white"/>
<stop offset="1" stop-color="white" stop-opacity="0"/>
</linearGradient>
<linearGradient id="paint1_linear_54_4064" x1="119.954" y1="152.106" x2="119.954" y2="189.928" gradientUnits="userSpaceOnUse">
<stop stop-color="white"/>
<stop offset="1" stop-color="white" stop-opacity="0"/>
</linearGradient>
<linearGradient id="paint2_linear_54_4064" x1="45.015" y1="165.857" x2="45.015" y2="174.576" gradientUnits="userSpaceOnUse">
<stop stop-color="white"/>
<stop offset="1" stop-color="white" stop-opacity="0"/>
</linearGradient>
<linearGradient id="paint3_linear_54_4064" x1="49.6322" y1="182.105" x2="49.6322" y2="190.824" gradientUnits="userSpaceOnUse">
<stop stop-color="white"/>
<stop offset="1" stop-color="white" stop-opacity="0"/>
</linearGradient>
<linearGradient id="paint4_linear_54_4064" x1="89.4988" y1="182.105" x2="89.4988" y2="190.824" gradientUnits="userSpaceOnUse">
<stop stop-color="white"/>
<stop offset="1" stop-color="white" stop-opacity="0"/>
</linearGradient>
<clipPath id="clip0_54_4064">
<rect width="220" height="201" fill="white"/>
</clipPath>
</defs>
</svg>
